<svg xmlns="http://www.w3.org/2000/svg" width="16" height="11" viewBox="0 0 16 11">
  <defs>
    <style>
      .cls-1 {
        fill: #4d4d4d;
        fill-rule: evenodd;
      }
    </style>
  </defs>
  <path id="Mail_icon" data-name="Mail icon" class="cls-1" d="M821.906,4672.93l4.87-4.71a0.727,0.727,0,0,1,.224.53v9.5a0.737,0.737,0,0,1-.2.51Zm-10.657-4.74a0.742,0.742,0,0,1,.5-0.19h14.5a0.739,0.739,0,0,1,.5.19l-7.75,6.06Zm-0.047,10.57a0.737,0.737,0,0,1-.2-0.51v-9.5a0.73,0.73,0,0,1,.223-0.53l4.871,4.71Zm7.8-3.01,2.034-1.97,5.73,5.01a0.734,0.734,0,0,1-.514.21h-14.5a0.734,0.734,0,0,1-.514-0.21l5.73-5.01Z" transform="translate(-811 -4668)"/>
</svg>
