<?xml version="1.0" encoding="utf-8"?>
<!-- Generator: Adobe Illustrator 21.0.0, SVG Export Plug-In . SVG Version: 6.00 Build 0)  -->
<svg version="1.1" id="Layer_1" xmlns="http://www.w3.org/2000/svg" xmlns:xlink="http://www.w3.org/1999/xlink" x="0px" y="0px"
	 viewBox="0 0 323.8 409.6" style="enable-background:new 0 0 323.8 409.6;" xml:space="preserve">
<style type="text/css">
	.st0{fill:#FFFFFF;}
</style>
<g transform="translate(0,-952.36218)">
	<path class="st0" d="M94.4,952.4c-0.9,0.2-1.7,0.6-2.4,1.2l-90.5,86.2c-1,0.9-1.5,2.2-1.5,3.6v294.9c0,2.6,2.1,4.8,4.8,4.8h190.5
		v14.3c0.1,2.6,2.2,4.7,4.9,4.7c0.8,0,1.6-0.2,2.3-0.6l31-17.7l31,17.7c2.3,1.3,5.2,0.5,6.5-1.7c0.4-0.7,0.6-1.5,0.6-2.3v-14.3h47.6
		c2.6,0,4.8-2.1,4.8-4.8V957.2c0-2.6-2.1-4.8-4.8-4.8H95.3C95,952.4,94.7,952.4,94.4,952.4z M100,961.9h214.3v371.5h-42.9v-61.9
		c0-0.6-0.1-1.2-0.3-1.8c9-9.4,14.6-22.3,14.6-36.3c0-28.9-23.5-52.4-52.4-52.4s-52.4,23.5-52.4,52.4c0,14.1,5.5,26.9,14.6,36.3
		c-0.2,0.6-0.3,1.2-0.3,1.8v61.9H9.6v-281h85.7c2.6,0,4.8-2.1,4.8-4.8v-4.8H243c2.6,0,4.8-2.1,4.8-4.7s-2.1-4.8-4.7-4.8H243H100
		V961.9z M90.5,968.3v74.6H12.1L90.5,968.3z M80.1,1081c-2.6,0.2-4.6,2.6-4.3,5.2c0.2,2.6,2.6,4.6,5.2,4.3h161.9
		c2.6,0,4.8-2.1,4.8-4.7s-2.1-4.8-4.7-4.8h-0.1H81C80.7,1081,80.4,1081,80.1,1081z M80.1,1128.7c-2.6,0.2-4.6,2.6-4.3,5.2
		c0.2,2.6,2.6,4.6,5.2,4.3h161.9c2.6,0,4.8-2.1,4.8-4.7s-2.1-4.8-4.7-4.8h-0.1H81C80.7,1128.6,80.4,1128.6,80.1,1128.7z
		 M233.4,1190.6c23.7,0,42.9,19.1,42.9,42.9c0,23.7-19.1,42.9-42.9,42.9c-23.7,0-42.9-19.1-42.9-42.9S209.7,1190.6,233.4,1190.6
		L233.4,1190.6z M46.8,1209.6c-2.6,0.2-4.6,2.6-4.3,5.2c0.2,2.6,2.6,4.6,5.2,4.3h95.2c2.6,0,4.8-2.1,4.8-4.7s-2.1-4.8-4.7-4.8h-0.1
		H47.7C47.4,1209.6,47.1,1209.6,46.8,1209.6z M46.8,1247.7c-2.6,0.2-4.6,2.6-4.3,5.2c0.2,2.6,2.6,4.6,5.2,4.3l0,0h95.2
		c2.6,0,4.8-2.1,4.8-4.7s-2.1-4.8-4.7-4.8h-0.1H47.7C47.4,1247.7,47.1,1247.7,46.8,1247.7z M204.8,1277.4c8.2,5.4,18.1,8.5,28.6,8.5
		s20.4-3.1,28.6-8.5v71.7l-26.2-15c-1.5-0.9-3.3-0.9-4.8,0l-26.2,15V1277.4z"/>
</g>
</svg>
