<?xml version="1.0" encoding="utf-8"?>
<!-- Generator: Adobe Illustrator 21.0.0, SVG Export Plug-In . SVG Version: 6.00 Build 0)  -->
<svg version="1.1" id="Слой_1" xmlns="http://www.w3.org/2000/svg" xmlns:xlink="http://www.w3.org/1999/xlink" x="0px" y="0px"
	 viewBox="0 0 24 24" style="enable-background:new 0 0 24 24;" xml:space="preserve">
<style type="text/css">
	.st0{fill:#C7C5C8;}
</style>
<path class="st0" d="M4.7,0h1.4l1,3.7L8,0h1.5L7.8,5.5v3.8H6.4V5.5L4.7,0z M11.2,2.4c-1.1,0-1.9,0.7-1.9,1.8v3.3
	c0,1.2,0.6,1.8,1.9,1.8c1,0,1.8-0.7,1.8-1.8V4.2C13.1,3.1,12.3,2.4,11.2,2.4z M11.8,7.5c0,0.4-0.2,0.6-0.5,0.6
	c-0.4,0-0.6-0.3-0.6-0.6V4.3c0-0.4,0.2-0.7,0.5-0.7c0.4,0,0.6,0.3,0.6,0.7C11.8,4.3,11.8,7.5,11.8,7.5z M16.5,2.4v5.2
	c-0.2,0.2-0.5,0.5-0.7,0.5c-0.3,0-0.3-0.2-0.3-0.5V2.4h-1.3v5.7c0,0.7,0.2,1.2,0.9,1.2c0.4,0,0.9-0.2,1.5-0.9v0.8h1.3V2.4H16.5z
	 M18.7,16.3c-0.4,0-0.5,0.3-0.5,0.8v0.7h1.1v-0.7C19.2,16.6,19.1,16.3,18.7,16.3z M14,16.3c-0.1,0-0.2,0.1-0.3,0.2v4.1
	c0.1,0.1,0.2,0.2,0.3,0.2c0.2,0.1,0.5,0.1,0.6-0.1c0.1-0.1,0.1-0.2,0.1-0.4v-3.4c0-0.2,0-0.4-0.1-0.5C14.5,16.2,14.2,16.2,14,16.3z
	 M18.8,11.1C16.2,11,7.8,11,5.2,11.1C2.4,11.3,2,13,2,17.5c0,4.5,0.3,6.2,3.2,6.4c2.6,0.2,11.1,0.2,13.7,0c2.8-0.2,3.1-1.9,3.2-6.4
	C22,13,21.6,11.3,18.8,11.1z M6.5,21.8H5.1v-7.5H3.7V13h4.2v1.3H6.5L6.5,21.8L6.5,21.8z M11.4,21.8h-1.2v-0.7
	c-0.2,0.3-0.5,0.5-0.7,0.6c-0.7,0.4-1.5,0.4-1.5-1v-5.4h1.2v5c0,0.3,0.1,0.4,0.3,0.4c0.2,0,0.6-0.3,0.7-0.5v-4.9h1.2L11.4,21.8
	L11.4,21.8z M16,20.5c0,0.8-0.3,1.4-1.1,1.4c-0.4,0-0.8-0.2-1.1-0.6v0.5h-1.2V13h1.2v2.8c0.3-0.3,0.6-0.6,1.1-0.6
	c0.9,0,1.2,0.7,1.2,1.6L16,20.5L16,20.5z M20.5,18.7h-2.3v1.2c0,0.5,0,0.9,0.5,0.9c0.5,0,0.5-0.3,0.5-0.9v-0.5h1.2V20
	c0,1.3-0.5,2-1.8,2c-1.2,0-1.7-0.8-1.7-2v-2.9c0-1.1,0.7-1.9,1.8-1.9c1.2,0,1.7,0.7,1.7,1.9L20.5,18.7L20.5,18.7z"/>
</svg>
