<?xml version="1.0" encoding="utf-8"?>
<!-- Generator: Adobe Illustrator 21.0.0, SVG Export Plug-In . SVG Version: 6.00 Build 0)  -->
<svg version="1.1" id="Layer_1" xmlns="http://www.w3.org/2000/svg" xmlns:xlink="http://www.w3.org/1999/xlink" x="0px" y="0px"
	 viewBox="0 0 260 414.8" style="enable-background:new 0 0 260 414.8;" xml:space="preserve">
<style type="text/css">
	.st0{fill:#FFFFFF;}
</style>
<g>
	<path class="st0" d="M260.1,130c0-71.4-58.1-130-130-130S0.1,58.6,0.1,130c0,38.1,16.7,72.4,42.9,96.2l-6.2,179.5
		c0,3.8,1.9,6.7,5.2,8.1c3.3,1.4,6.7,1,9.5-1.4l78.6-52.9l0,0l79.1,53.3c1.4,1.4,3.8,1.9,5.7,1.9c1.4,0,2.4-0.5,3.8-1
		c3.3-1.4,5.2-4.8,5.2-8.6l-6.7-178.6C243.9,202.9,260.1,168.6,260.1,130z M9.6,130C9.6,63.8,63.4,9.5,130,9.5S250.5,63.8,250.5,130
		S196.7,251,130,251S9.6,196.7,9.6,130z M214.3,405.2l-78.6-53.3c-3.3-2.9-8.1-2.9-11.4,0l-78.1,53.3l5.7-171
		c21.9,16.2,49.1,26.2,78.1,26.2s56.2-9.5,78.1-26.2L214.3,405.2z"/>
	<polygon class="st0" points="182.9,99 176.2,92.4 118.1,150.5 83.9,116.2 77.2,122.8 118.1,163.8 	"/>
</g>
</svg>
