<?xml version="1.0" encoding="utf-8"?>
<!-- Generator: Adobe Illustrator 21.0.0, SVG Export Plug-In . SVG Version: 6.00 Build 0)  -->
<svg version="1.1" id="Layer_1" xmlns="http://www.w3.org/2000/svg" xmlns:xlink="http://www.w3.org/1999/xlink" x="0px" y="0px"
	 viewBox="0 0 389 323.7" style="enable-background:new 0 0 389 323.7;" xml:space="preserve">
<style type="text/css">
	.st0{fill:#FFFFFF;}
</style>
<path class="st0" d="M388.9,79.5c0-0.2,0-0.4,0-0.6l0,0l0,0c0-0.2,0-0.2-0.2-0.4c0,0,0,0,0-0.2c0,0,0,0,0-0.2l0,0c0,0,0,0-0.2-0.2
	c0,0,0,0-0.2-0.2l-0.2-0.2l0,0l0,0l0,0c-0.2-0.2-0.4-0.2-0.4-0.2l0,0h-0.2l0,0l-164-54.4c-0.4-0.2-0.7-0.2-1.1,0l-36.6,5.8L99.6,0.1
	c-0.9-0.4-1.9,0-2.4,0.6L0.7,90.5c0,0,0,0,0,0.2l-0.2,0.2l-0.2,0.2c0,0.2-0.2,0.2-0.2,0.4v0.2c0,0.2,0,0.2,0,0.4v0.2l0,0v174.5
	c0,1.1,0.7,2.1,1.7,2.2l164.1,54.5l0,0c0.2,0,0.6,0.2,0.7,0.2s0.6,0,0.7-0.2l220.1-67.4c1.1-0.4,1.7-1.3,1.7-2.4L388.9,79.5
	L388.9,79.5z M206.3,112.9l25.8-24.1l38.8,12.9c0.2,0,0.4,0.2,0.7,0.2l0,0c0.2,0,0.4,0,0.4,0l76-13.3l-172.3,52.8L206.3,112.9z
	 M222,27.4l154.4,51.3L271.9,97l-35.7-11.9l28.1-26.3l0.2-0.2l0.2-0.2c0-0.2,0.2-0.2,0.2-0.4v-0.2l0,0c0,0,0,0,0-0.2l0,0
	c0-0.2,0.2-0.4,0.2-0.7l0,0l0,0v-0.2c0-0.2,0-0.2,0-0.4c0,0,0,0,0-0.2v-0.2c0,0,0,0,0-0.2s-0.2-0.2-0.2-0.4c0,0,0-0.2-0.2-0.2
	c0,0,0-0.2-0.2-0.2l0,0l0,0c0,0-0.2,0-0.2-0.2l-0.2-0.2c-0.2,0-0.2-0.2-0.4-0.2h-0.2c0,0,0,0-0.2,0l-68-22.4L222,27.4z M99.3,5.2
	L258.2,58l-82.5,76.7l-10.1,9.3L6.9,91.2L99.3,5.2z M4.7,95.7l83.1,27.6l76.2,25.2v169.3L4.8,265V95.7H4.7z M383.8,252.2
	l-215.1,65.9V148.6l215.1-65.9V252.2z"/>
</svg>
