<?xml version="1.0" encoding="utf-8"?>
<!-- Generator: Adobe Illustrator 16.0.0, SVG Export Plug-In . SVG Version: 6.00 Build 0)  -->
<!DOCTYPE svg PUBLIC "-//W3C//DTD SVG 1.1//EN" "http://www.w3.org/Graphics/SVG/1.1/DTD/svg11.dtd">
<svg version="1.1" id="Layer_1" xmlns="http://www.w3.org/2000/svg" xmlns:xlink="http://www.w3.org/1999/xlink" x="0px" y="0px"
	 width="500px" height="150px" viewBox="0 0 500 150" enable-background="new 0 0 500 150" xml:space="preserve">
<path fill="#EC2134" d="M174.922,102.601c0,2.916-0.996,5.442-2.988,7.581c-1.993,2.138-4.396,3.207-7.216,3.207
	c-3.11,0-5.71-1.045-7.799-3.135s-3.134-4.642-3.134-7.653v-62.83c0-3.013,1.045-5.588,3.134-7.726
	c2.089-2.139,4.688-3.207,7.799-3.207c2.818,0,5.223,1.093,7.216,3.279c1.992,2.188,2.988,4.738,2.988,7.653V102.601
	L174.922,102.601z"/>
<path fill="#EC2134" d="M208.743,39.479c0.097,2.333-0.535,4.373-1.896,6.123c-1.36,1.75-3.037,3.037-5.029,3.863
	c-1.991,0.825-4.105,1.116-6.341,0.875c-2.235-0.243-4.179-1.239-5.832-2.988c-1.75-1.652-2.77-3.572-3.061-5.758
	c-0.292-2.188,0-4.252,0.875-6.196c0.875-1.943,2.211-3.547,4.009-4.811s3.863-1.847,6.196-1.75c3.109,0,5.732,1.021,7.872,3.062
	C207.675,33.94,208.743,36.467,208.743,39.479L208.743,39.479z"/>
<path fill="#EC2134" d="M208.16,102.601c0,2.916-0.996,5.442-2.988,7.581c-1.993,2.138-4.397,3.207-7.216,3.207
	c-3.11,0-5.71-1.045-7.8-3.135c-2.089-2.09-3.134-4.642-3.134-7.653V71.842c0-3.11,1.045-5.71,3.134-7.8
	c2.09-2.089,4.689-3.134,7.8-3.134c2.817,0,5.223,1.093,7.216,3.28c1.992,2.187,2.988,4.738,2.988,7.653V102.601L208.16,102.601z"/>
<path fill="#EC2134" d="M453.985,113.243V61.055h-90.819c-8.065,0-14.917,2.478-20.555,7.435
	c-5.831,5.055-8.796,11.128-8.893,18.223c-0.194,7.288,2.43,13.558,7.872,18.806c5.637,5.15,12.342,7.727,20.116,7.727h51.605
	l19.534-19.533v19.533L453.985,113.243L453.985,113.243z M432.701,91.813h-76.97V82.63h76.97V91.813L432.701,91.813z"/>
<path fill="#EC2134" d="M489.226,102.601c0,2.916-0.996,5.442-2.989,7.581c-1.992,2.138-4.396,3.207-7.216,3.207
	c-3.109,0-5.71-1.045-7.799-3.135s-3.134-4.642-3.134-7.653v-62.83c0-3.013,1.045-5.588,3.134-7.726
	c2.089-2.139,4.688-3.207,7.799-3.207c2.818,0,5.224,1.093,7.216,3.279c1.993,2.188,2.989,4.738,2.989,7.653V102.601
	L489.226,102.601z"/>
<path fill="#EC2134" d="M281.665,95.246c2.062,2.062,3.144,4.554,3.247,7.475c0.103,2.921-0.843,5.377-2.835,7.37
	c-2.199,2.198-4.776,3.299-7.73,3.299c-2.955,0-5.498-1.065-7.628-3.195l-44.428-44.428c-2.13-2.13-3.213-4.69-3.247-7.679
	c-0.035-2.99,1.048-5.584,3.247-7.783c1.993-1.993,4.466-2.92,7.421-2.783s5.463,1.237,7.524,3.298L281.665,95.246L281.665,95.246z"
	/>
<path fill="#EC2134" d="M267.166,95.246c-2.062,2.062-3.146,4.554-3.247,7.475c-0.103,2.921,0.842,5.377,2.835,7.37
	c2.199,2.198,4.775,3.299,7.73,3.299c2.954,0,5.497-1.065,7.627-3.195l44.429-44.428c2.131-2.13,3.213-4.69,3.247-7.679
	c0.033-2.99-1.049-5.584-3.247-7.783c-1.993-1.993-4.468-2.92-7.422-2.783c-2.955,0.137-5.464,1.237-7.524,3.298L267.166,95.246
	L267.166,95.246z"/>
<path fill="#FFFFFF" d="M480.412,121.306c2.914,0,5.442,0.996,7.58,2.988c2.14,1.991,3.207,4.396,3.207,7.216
	c0,3.109-1.045,5.71-3.134,7.799c-2.09,2.09-4.641,3.135-7.653,3.135H164.719c-3.013,0-5.588-1.045-7.726-3.135
	c-2.139-2.089-3.208-4.688-3.208-7.799c0-2.818,1.094-5.225,3.279-7.216c2.187-1.992,4.739-2.988,7.653-2.988H480.412
	L480.412,121.306z"/>
<path fill="#EC2134" d="M172.848,136.195c0,0.358-0.177,0.537-0.533,0.537h-4.762c-0.832,0-1.453-0.032-1.861-0.095
	c-0.748-0.114-1.311-0.349-1.694-0.699c-0.385-0.354-0.578-0.817-0.578-1.395v-5.59c0-0.354,0.177-0.53,0.531-0.53
	c0.373,0,0.594,0.01,0.66,0.027c0.215,0.062,0.322,0.23,0.322,0.503v5.59c0,0.443,0.352,0.73,1.058,0.858
	c0.285,0.054,0.803,0.081,1.548,0.081h4.775c0.225,0,0.373,0.068,0.452,0.205C172.819,135.785,172.848,135.953,172.848,136.195
	L172.848,136.195z"/>
<path fill="#EC2134" d="M176.328,136.195c0,0.358-0.178,0.537-0.531,0.537c-0.373,0-0.596-0.011-0.668-0.034
	c-0.209-0.062-0.314-0.23-0.314-0.503v-7.24c0-0.271,0.105-0.439,0.314-0.503c0.072-0.019,0.296-0.027,0.668-0.027
	c0.354,0,0.531,0.178,0.531,0.53V136.195L176.328,136.195z"/>
<path fill="#EC2134" d="M189.248,129.256l-4.911,6.984c-0.242,0.338-0.542,0.506-0.908,0.506c-0.373,0-0.675-0.165-0.906-0.499
	l-4.928-6.991c-0.104-0.154-0.156-0.292-0.156-0.408c0-0.296,0.247-0.444,0.74-0.444c0.382,0,0.629,0.084,0.743,0.249l4.511,6.427
	l4.479-6.429c0.113-0.166,0.36-0.247,0.742-0.247c0.501,0,0.752,0.148,0.752,0.444C189.406,128.969,189.353,129.106,189.248,129.256
	L189.248,129.256z"/>
<path fill="#EC2134" d="M201.747,135.962c0.019,0.069,0.027,0.138,0.027,0.204c0,0.215-0.071,0.393-0.219,0.531
	c-0.145,0.137-0.317,0.207-0.517,0.207c-0.287,0-0.524-0.138-0.71-0.41l-1.344-1.95H192.6l-1.344,1.95
	c-0.147,0.215-0.303,0.321-0.473,0.321c-0.096,0-0.205-0.027-0.326-0.084c-0.277-0.12-0.417-0.288-0.417-0.495
	c0-0.047,0.014-0.094,0.042-0.138l4.788-7.321c0.181-0.277,0.49-0.427,0.929-0.45c0.357-0.018,0.622,0.082,0.792,0.302
	c0.016,0.036,0.044,0.086,0.082,0.148L201.747,135.962L201.747,135.962z M198.093,133.289l-2.296-3.391l-2.311,3.391H198.093
	L198.093,133.289z"/>
<path fill="#EC2134" d="M213.172,136.195c0,0.358-0.177,0.537-0.533,0.537h-4.762c-0.832,0-1.453-0.032-1.861-0.095
	c-0.748-0.114-1.311-0.349-1.695-0.699c-0.384-0.354-0.576-0.817-0.576-1.395v-5.59c0-0.354,0.177-0.53,0.53-0.53
	c0.373,0,0.595,0.01,0.661,0.027c0.214,0.062,0.322,0.23,0.322,0.503v5.59c0,0.443,0.351,0.73,1.057,0.858
	c0.286,0.054,0.804,0.081,1.548,0.081h4.776c0.224,0,0.373,0.068,0.452,0.205C213.145,135.785,213.172,135.953,213.172,136.195
	L213.172,136.195z"/>
<path fill="#EC2134" d="M227.958,133.44c0,0.354-0.18,0.53-0.54,0.53h-4.477c-0.263,0-0.429-0.093-0.496-0.279
	c-0.027-0.081-0.042-0.286-0.042-0.614c0-0.354,0.18-0.53,0.538-0.53h4.477c0.266,0,0.429,0.093,0.492,0.278
	C227.941,132.906,227.958,133.111,227.958,133.44L227.958,133.44z"/>
<path fill="#EC2134" d="M247.9,135.962c0.02,0.069,0.028,0.138,0.028,0.204c0,0.215-0.072,0.393-0.219,0.531
	c-0.145,0.137-0.316,0.207-0.518,0.207c-0.286,0-0.523-0.138-0.71-0.41l-1.344-1.95h-6.385l-1.343,1.95
	c-0.147,0.215-0.304,0.321-0.474,0.321c-0.095,0-0.205-0.027-0.326-0.084c-0.276-0.12-0.417-0.288-0.417-0.495
	c0-0.047,0.015-0.094,0.042-0.138l4.788-7.321c0.183-0.277,0.491-0.427,0.93-0.45c0.358-0.018,0.622,0.082,0.792,0.302
	c0.016,0.036,0.044,0.086,0.081,0.148L247.9,135.962L247.9,135.962z M244.247,133.289l-2.296-3.391l-2.311,3.391H244.247
	L244.247,133.289z"/>
<path fill="#EC2134" d="M254.168,130.874c0,0.354-0.181,0.531-0.538,0.531c-0.042,0-0.133,0-0.271,0c-0.141,0-0.255,0-0.345,0
	c-1.105,0-1.658,0.274-1.658,0.824v3.966c0,0.269-0.098,0.434-0.294,0.496c-0.076,0.027-0.288,0.041-0.633,0.041
	c-0.355,0-0.534-0.182-0.534-0.544l0.021-3.971c0-1.352,1.235-2.026,3.712-2.026C253.987,130.191,254.168,130.42,254.168,130.874
	L254.168,130.874z"/>
<path fill="#EC2134" d="M261.112,130.913c0,0.356-0.18,0.534-0.537,0.534h-2.28v4.748c0,0.358-0.177,0.537-0.53,0.537
	c-0.333,0-0.54-0.016-0.622-0.049c-0.189-0.062-0.286-0.227-0.286-0.488v-4.748h-0.506c-0.372,0-0.559-0.201-0.559-0.602
	c0-0.401,0.187-0.602,0.559-0.602h0.506v-1.29c0-0.354,0.178-0.53,0.53-0.53c0.338,0,0.546,0.015,0.622,0.042
	c0.191,0.062,0.286,0.226,0.286,0.488v1.29h2.28C260.934,130.245,261.112,130.469,261.112,130.913L261.112,130.913z"/>
<path fill="#EC2134" d="M264.761,129.842c0,0.232-0.098,0.417-0.294,0.555c-0.172,0.123-0.386,0.184-0.64,0.184
	c-0.258,0-0.472-0.061-0.645-0.184c-0.195-0.138-0.293-0.321-0.293-0.555c0-0.23,0.096-0.414,0.286-0.553
	c0.178-0.123,0.394-0.184,0.65-0.184c0.248,0,0.463,0.061,0.64,0.184C264.663,129.428,264.761,129.611,264.761,129.842
	L264.761,129.842z M264.562,136.195c0,0.358-0.179,0.537-0.538,0.537c-0.328,0-0.532-0.016-0.613-0.049
	c-0.188-0.067-0.279-0.23-0.279-0.488v-4.946c0-0.354,0.179-0.532,0.537-0.532c0.324,0,0.528,0.014,0.615,0.042
	c0.187,0.066,0.278,0.231,0.278,0.49V136.195L264.562,136.195z"/>
<path fill="#EC2134" d="M275.767,136.517c0,0.745-0.475,1.295-1.425,1.649c-0.669,0.25-1.451,0.375-2.348,0.375h-0.602
	c-0.357,0-0.54-0.226-0.54-0.675c0-0.355,0.183-0.532,0.54-0.532h1.043c0.233,0,0.573-0.065,1.024-0.198
	c0.525-0.149,0.802-0.304,0.824-0.456h-3.949c-0.924,0-1.688-0.117-2.293-0.349c-0.879-0.342-1.316-0.897-1.316-1.672v-2.429
	c0-1.374,1.355-2.061,4.066-2.061c0.186,0,0.424,0.002,0.712,0.009c0.289,0.007,0.479,0.01,0.57,0.01
	c0.896,0,1.673,0.128,2.326,0.382c0.91,0.358,1.364,0.917,1.364,1.672v4.274H275.767z M274.312,135.478v-3.172
	c0-0.328-0.271-0.572-0.818-0.737c-0.378-0.114-0.773-0.171-1.187-0.171h-2.271c-0.534,0-0.918,0.028-1.153,0.082
	c-0.479,0.114-0.717,0.356-0.717,0.724v2.438c0,0.559,0.715,0.838,2.143,0.838L274.312,135.478L274.312,135.478z"/>
<path fill="#EC2134" d="M286.655,134.7c0,0.74-0.366,1.287-1.105,1.638c-0.559,0.264-1.255,0.396-2.086,0.396h-2.396
	c-0.827,0-1.541-0.135-2.135-0.402c-0.801-0.354-1.202-0.896-1.202-1.63v-2.407c0-0.723,0.398-1.276,1.195-1.658
	c0.621-0.296,1.334-0.442,2.135-0.442h2.401c2.128,0,3.191,0.696,3.191,2.087L286.655,134.7L286.655,134.7z M285.195,134.7v-2.518
	c0-0.521-0.592-0.777-1.773-0.777h-2.341c-0.432,0-0.821,0.054-1.173,0.163c-0.491,0.16-0.736,0.4-0.736,0.725v2.407
	c0,0.312,0.252,0.54,0.757,0.681c0.338,0.096,0.725,0.145,1.16,0.145h2.34c0.382,0,0.74-0.054,1.071-0.163
	C284.964,135.21,285.195,134.991,285.195,134.7L285.195,134.7z"/>
<path fill="#EC2134" d="M296.871,134.863c0,1.245-0.95,1.869-2.854,1.869h-4.872c-0.354,0-0.531-0.179-0.531-0.54
	c0-0.444,0.178-0.668,0.531-0.668h4.878c0.901,0,1.353-0.222,1.353-0.661v-0.245c0-0.396-0.41-0.594-1.229-0.594h-2.341
	c-2.151,0-3.228-0.601-3.228-1.8v-0.356c0-0.799,0.548-1.312,1.645-1.539c0.442-0.091,1.283-0.138,2.524-0.138
	c0.357,0,0.538,0.18,0.538,0.538v0.145c0,0.354-0.181,0.531-0.538,0.531h-1.036c-0.533,0-0.857,0.007-0.969,0.021
	c-0.482,0.054-0.726,0.202-0.726,0.441v0.344c0,0.28,0.247,0.461,0.743,0.536c0.188,0.033,0.537,0.05,1.053,0.05h2.388
	c1.778,0,2.669,0.59,2.669,1.769L296.871,134.863L296.871,134.863z"/>
<path fill="#EC2134" d="M315.689,134.721c0,0.695-0.439,1.228-1.321,1.596c-0.667,0.276-1.397,0.416-2.198,0.416h-2.196
	c-2.252,0-3.399-0.616-3.447-1.849c-0.021-0.688-0.016-1.557,0.021-2.605c0.047-1.354,1.181-2.033,3.404-2.033h4.299v-1.275
	c0-0.358,0.177-0.538,0.531-0.538c0.327,0,0.532,0.015,0.614,0.042c0.195,0.062,0.293,0.229,0.293,0.496V134.721L315.689,134.721z
	 M314.251,134.692v-3.238h-4.334c-1.287,0-1.931,0.283-1.931,0.853v2.316c0,0.425,0.242,0.696,0.725,0.82
	c0.217,0.053,0.631,0.081,1.241,0.081h2.074C313.511,135.524,314.251,135.247,314.251,134.692L314.251,134.692z"/>
<path fill="#EC2134" d="M326.669,133.575c0,0.396-0.136,0.595-0.403,0.595h-7.156c-0.049,0.907,0.686,1.361,2.203,1.361
	c0.097,0,0.227,0,0.39,0c0.168,0,0.283,0,0.348,0c0.355,0,0.533,0.222,0.533,0.666c0,0.356-0.178,0.535-0.533,0.535
	c-0.932,0-1.559-0.016-1.875-0.049c-0.796-0.076-1.381-0.263-1.753-0.56c-0.534-0.417-0.799-0.902-0.799-1.46v-2.407
	c0-0.754,0.414-1.312,1.239-1.669c0.605-0.27,1.343-0.403,2.214-0.403h2.688c0.715,0,1.337,0.126,1.87,0.375
	c0.691,0.323,1.036,0.804,1.036,1.438L326.669,133.575L326.669,133.575z M325.262,132.921v-0.807c0-0.491-0.976-0.735-2.927-0.735
	c-0.24,0-0.491,0.005-0.755,0.012c-0.262,0.01-0.375,0.015-0.343,0.015c-1.45,0-2.178,0.253-2.178,0.765v0.752L325.262,132.921
	L325.262,132.921z"/>
<path fill="#EC2134" d="M345.577,136.022c0,0.473-0.178,0.71-0.533,0.71h-5.417c-0.836,0-1.562-0.142-2.177-0.423
	c-0.81-0.368-1.215-0.918-1.215-1.651v-4.119c0-0.405,0.136-0.765,0.403-1.078c0.582-0.691,1.62-1.036,3.118-1.036h1.479
	c0.353,0,0.526,0.178,0.526,0.53v0.165c0,0.359-0.175,0.538-0.523,0.538c-0.027,0-0.158-0.005-0.39-0.012s-0.439-0.01-0.622-0.01
	c-1.66,0-2.489,0.301-2.489,0.901v1.453h7.312c0.372,0,0.559,0.195,0.559,0.586c0,0.178-0.046,0.326-0.142,0.45
	c-0.109,0.143-0.252,0.212-0.424,0.212h-7.307v1.364c0,0.587,0.65,0.88,1.947,0.88h5.358
	C345.396,135.484,345.577,135.664,345.577,136.022L345.577,136.022z"/>
<path fill="#EC2134" d="M359.949,136.195c0,0.358-0.177,0.537-0.53,0.537c-0.338,0-0.544-0.014-0.621-0.041
	c-0.195-0.068-0.294-0.232-0.294-0.496v-4.031c0-0.52-0.612-0.777-1.835-0.777c-0.118,0-0.262,0.003-0.427,0.01
	s-0.266,0.01-0.303,0.01c-0.96,0-1.438,0.314-1.438,0.94v3.85c0,0.264-0.099,0.429-0.294,0.496
	c-0.081,0.027-0.288,0.041-0.621,0.041c-0.358,0-0.538-0.179-0.538-0.537v-3.86c0-0.388-0.138-0.647-0.409-0.785
	c-0.191-0.096-0.506-0.143-0.941-0.143c-0.042,0-0.156-0.005-0.345-0.012c-0.189-0.007-0.349-0.01-0.48-0.01
	c-1.237,0-1.856,0.264-1.856,0.792v4.018c0,0.264-0.096,0.429-0.286,0.496c-0.082,0.027-0.289,0.041-0.622,0.041
	c-0.354,0-0.53-0.179-0.53-0.537v-3.868c0-1.423,1.046-2.136,3.14-2.136c0.873,0,1.405,0.012,1.602,0.035
	c0.521,0.062,1.017,0.237,1.495,0.523c0.445-0.272,0.948-0.442,1.507-0.513c0.259-0.029,0.797-0.047,1.609-0.047
	c2.015,0,3.021,0.713,3.021,2.136v3.868H359.949z"/>
<path fill="#EC2134" d="M371.2,134.672c0,1.374-1.135,2.061-3.404,2.061h-2.21c-0.797,0-1.531-0.144-2.209-0.435
	c-0.874-0.375-1.312-0.904-1.312-1.592v-5.737c0-0.269,0.098-0.437,0.293-0.503c0.077-0.023,0.282-0.035,0.615-0.035
	c0.354,0,0.531,0.18,0.531,0.538v1.275h4.291c2.271,0,3.404,0.677,3.404,2.026L371.2,134.672L371.2,134.672z M369.769,134.623V132.3
	c0-0.563-0.647-0.846-1.944-0.846h-4.318v3.246c0,0.291,0.312,0.511,0.934,0.661c0.438,0.109,0.878,0.163,1.318,0.163h2.054
	c0.641,0,1.055-0.022,1.241-0.067C369.527,135.338,369.769,135.061,369.769,134.623L369.769,134.623z"/>
<path fill="#EC2134" d="M382.737,134.768c0,1.311-0.981,1.965-2.948,1.965h-3.521c-0.704,0-1.356-0.144-1.95-0.431
	c-0.747-0.354-1.119-0.843-1.119-1.465v-0.833c0-0.684,0.355-1.195,1.066-1.535c0.547-0.264,1.201-0.396,1.961-0.396h5.1
	c-0.071-0.459-0.727-0.688-1.961-0.688c-0.133,0-0.293,0.003-0.485,0.01c-0.191,0.007-0.309,0.01-0.351,0.01
	c-0.355,0-0.533-0.178-0.533-0.531v-0.145c0-0.358,0.178-0.538,0.53-0.538c1.207,0,2.085,0.077,2.635,0.233
	c1.051,0.291,1.576,0.882,1.576,1.777V134.768L382.737,134.768z M381.299,133.281h-5.111c-0.296,0-0.604,0.055-0.92,0.163
	c-0.419,0.138-0.629,0.322-0.629,0.553v0.826c0,0.235,0.217,0.419,0.646,0.552c0.319,0.102,0.635,0.149,0.943,0.149h3.574
	c0.643,0,1.063-0.084,1.265-0.252c0.173-0.142,0.259-0.424,0.259-0.845c0-0.091-0.005-0.265-0.014-0.516
	C381.304,133.659,381.299,133.449,381.299,133.281L381.299,133.281z"/>
<path fill="#EC2134" d="M386.144,136.195c0,0.358-0.177,0.537-0.531,0.537c-0.338,0-0.545-0.016-0.622-0.049
	c-0.189-0.062-0.286-0.227-0.286-0.488v-7.24c0-0.354,0.178-0.53,0.531-0.53c0.337,0,0.545,0.015,0.621,0.042
	c0.191,0.062,0.287,0.226,0.287,0.488V136.195L386.144,136.195z"/>
<path fill="#EC2134" d="M397.681,134.768c0,1.311-0.982,1.965-2.948,1.965h-3.521c-0.703,0-1.355-0.144-1.949-0.431
	c-0.747-0.354-1.12-0.843-1.12-1.465v-0.833c0-0.684,0.355-1.195,1.067-1.535c0.547-0.264,1.2-0.396,1.96-0.396h5.101
	c-0.072-0.459-0.727-0.688-1.961-0.688c-0.133,0-0.294,0.003-0.487,0.01c-0.189,0.007-0.307,0.01-0.349,0.01
	c-0.356,0-0.533-0.178-0.533-0.531v-0.145c0-0.358,0.177-0.538,0.53-0.538c1.207,0,2.085,0.077,2.634,0.233
	c1.051,0.291,1.577,0.882,1.577,1.777L397.681,134.768L397.681,134.768z M396.24,133.281h-5.11c-0.296,0-0.604,0.055-0.92,0.163
	c-0.42,0.138-0.63,0.322-0.63,0.553v0.826c0,0.235,0.218,0.419,0.647,0.552c0.319,0.102,0.634,0.149,0.943,0.149h3.573
	c0.644,0,1.064-0.084,1.266-0.252c0.172-0.142,0.259-0.424,0.259-0.845c0-0.091-0.005-0.265-0.015-0.516
	C396.245,133.659,396.24,133.449,396.24,133.281L396.24,133.281z"/>
<path fill="#EC2134" d="M408.687,136.517c0,0.745-0.476,1.295-1.425,1.649c-0.669,0.25-1.451,0.375-2.349,0.375h-0.601
	c-0.359,0-0.541-0.226-0.541-0.675c0-0.355,0.182-0.532,0.541-0.532h1.043c0.232,0,0.572-0.065,1.024-0.198
	c0.525-0.149,0.801-0.304,0.823-0.456h-3.948c-0.926,0-1.688-0.117-2.294-0.349c-0.879-0.342-1.315-0.897-1.315-1.672v-2.429
	c0-1.374,1.355-2.061,4.065-2.061c0.187,0,0.424,0.002,0.713,0.009s0.479,0.01,0.569,0.01c0.896,0,1.674,0.128,2.326,0.382
	c0.911,0.358,1.365,0.917,1.365,1.672v4.274H408.687z M407.232,135.478v-3.172c0-0.328-0.271-0.572-0.82-0.737
	c-0.377-0.114-0.771-0.171-1.185-0.171h-2.272c-0.533,0-0.918,0.028-1.152,0.082c-0.479,0.114-0.717,0.356-0.717,0.724v2.438
	c0,0.559,0.715,0.838,2.142,0.838L407.232,135.478L407.232,135.478z"/>
<path fill="#EC2134" d="M419.664,133.575c0,0.396-0.136,0.595-0.402,0.595h-7.156c-0.049,0.907,0.685,1.361,2.203,1.361
	c0.096,0,0.226,0,0.389,0c0.168,0,0.284,0,0.348,0c0.355,0,0.532,0.222,0.532,0.666c0,0.356-0.177,0.535-0.532,0.535
	c-0.932,0-1.559-0.016-1.874-0.049c-0.798-0.076-1.382-0.263-1.755-0.56c-0.532-0.417-0.799-0.902-0.799-1.46v-2.407
	c0-0.754,0.415-1.312,1.241-1.669c0.605-0.27,1.342-0.403,2.213-0.403h2.688c0.715,0,1.336,0.126,1.869,0.375
	c0.691,0.323,1.036,0.804,1.036,1.438L419.664,133.575L419.664,133.575z M418.258,132.921v-0.807c0-0.491-0.977-0.735-2.928-0.735
	c-0.239,0-0.49,0.005-0.755,0.012c-0.261,0.01-0.375,0.015-0.342,0.015c-1.451,0-2.178,0.253-2.178,0.765v0.752L418.258,132.921
	L418.258,132.921z"/>
<path fill="#EC2134" d="M434.005,136.195c0,0.358-0.178,0.537-0.53,0.537c-0.338,0-0.545-0.014-0.622-0.041
	c-0.195-0.068-0.293-0.232-0.293-0.496v-4.031c0-0.52-0.612-0.777-1.835-0.777c-0.119,0-0.261,0.003-0.427,0.01
	c-0.165,0.007-0.267,0.01-0.304,0.01c-0.959,0-1.438,0.314-1.438,0.94v3.85c0,0.264-0.098,0.429-0.294,0.496
	c-0.081,0.027-0.289,0.041-0.622,0.041c-0.358,0-0.537-0.179-0.537-0.537v-3.86c0-0.388-0.138-0.647-0.41-0.785
	c-0.19-0.096-0.505-0.143-0.939-0.143c-0.042,0-0.156-0.005-0.346-0.012c-0.188-0.007-0.35-0.01-0.481-0.01
	c-1.236,0-1.855,0.264-1.855,0.792v4.018c0,0.264-0.096,0.429-0.287,0.496c-0.081,0.027-0.288,0.041-0.621,0.041
	c-0.354,0-0.53-0.179-0.53-0.537v-3.868c0-1.423,1.046-2.136,3.139-2.136c0.874,0,1.407,0.012,1.604,0.035
	c0.52,0.062,1.016,0.237,1.494,0.523c0.444-0.272,0.947-0.442,1.508-0.513c0.258-0.029,0.796-0.047,1.607-0.047
	c2.016,0,3.022,0.713,3.022,2.136v3.868H434.005z"/>
<path fill="#EC2134" d="M437.464,135.314l-0.328,1.979c-0.035,0.229-0.156,0.372-0.361,0.422c-0.058,0.019-0.261,0.026-0.606,0.026
	c-0.358,0-0.538-0.154-0.538-0.47c0-0.052,0.005-0.101,0.015-0.151l0.314-1.983c0.033-0.235,0.154-0.38,0.359-0.429
	c0.06-0.015,0.263-0.021,0.615-0.021c0.362,0,0.545,0.155,0.545,0.47C437.479,135.209,437.474,135.261,437.464,135.314
	L437.464,135.314z"/>
<path fill="#EC2134" d="M456.475,136.195c0,0.358-0.177,0.537-0.533,0.537h-4.762c-0.832,0-1.453-0.032-1.861-0.095
	c-0.747-0.114-1.311-0.349-1.695-0.699c-0.384-0.354-0.576-0.817-0.576-1.395v-5.59c0-0.354,0.177-0.53,0.53-0.53
	c0.372,0,0.595,0.01,0.661,0.027c0.214,0.062,0.321,0.23,0.321,0.503v5.59c0,0.443,0.352,0.73,1.058,0.858
	c0.286,0.054,0.804,0.081,1.549,0.081h4.775c0.225,0,0.373,0.068,0.452,0.205C456.446,135.785,456.475,135.953,456.475,136.195
	L456.475,136.195z"/>
<path fill="#EC2134" d="M467.691,134.721c0,0.695-0.438,1.228-1.322,1.596c-0.666,0.276-1.396,0.416-2.197,0.416h-2.196
	c-2.251,0-3.399-0.616-3.446-1.849c-0.022-0.688-0.017-1.557,0.021-2.605c0.047-1.354,1.182-2.033,3.404-2.033h4.3v-1.275
	c0-0.358,0.177-0.538,0.529-0.538c0.329,0,0.533,0.015,0.615,0.042c0.195,0.062,0.293,0.229,0.293,0.496L467.691,134.721
	L467.691,134.721z M466.254,134.692v-3.238h-4.334c-1.288,0-1.932,0.283-1.932,0.853v2.316c0,0.425,0.242,0.696,0.726,0.82
	c0.217,0.053,0.631,0.081,1.24,0.081h2.074C465.513,135.524,466.254,135.247,466.254,134.692L466.254,134.692z"/>
<path fill="#EC2134" d="M479.229,134.768c0,1.311-0.982,1.965-2.947,1.965h-3.521c-0.703,0-1.355-0.144-1.949-0.431
	c-0.747-0.354-1.12-0.843-1.12-1.465v-0.833c0-0.684,0.356-1.195,1.067-1.535c0.547-0.264,1.201-0.396,1.96-0.396h5.1
	c-0.072-0.459-0.726-0.688-1.96-0.688c-0.133,0-0.294,0.003-0.487,0.01c-0.189,0.007-0.308,0.01-0.349,0.01
	c-0.356,0-0.534-0.178-0.534-0.531v-0.145c0-0.358,0.178-0.538,0.531-0.538c1.206,0,2.084,0.077,2.634,0.233
	c1.051,0.291,1.576,0.882,1.576,1.777L479.229,134.768L479.229,134.768z M477.791,133.281h-5.111c-0.296,0-0.604,0.055-0.92,0.163
	c-0.42,0.138-0.629,0.322-0.629,0.553v0.826c0,0.235,0.217,0.419,0.646,0.552c0.318,0.102,0.633,0.149,0.943,0.149h3.574
	c0.643,0,1.063-0.084,1.265-0.252c0.172-0.142,0.258-0.424,0.258-0.845c0-0.091-0.005-0.265-0.014-0.516
	C477.796,133.659,477.791,133.449,477.791,133.281L477.791,133.281z"/>
<path fill="#EC2134" d="M482.443,135.985c0,0.23-0.101,0.417-0.301,0.56c-0.172,0.123-0.387,0.185-0.641,0.185
	c-0.257,0-0.474-0.062-0.649-0.185c-0.195-0.138-0.293-0.323-0.293-0.56c0-0.232,0.098-0.414,0.293-0.547
	c0.173-0.124,0.387-0.185,0.643-0.185c0.255,0,0.472,0.061,0.647,0.185C482.344,135.575,482.443,135.757,482.443,135.985
	L482.443,135.985z"/>
<polygon fill="#EC2134" points="9,60.098 74.921,82.347 74.921,148.268 9,126.019 "/>
<path fill="#FFFFFF" d="M74.921,148.268l50.272-44.749V81.631L90.8,112.245c0-14.678,0-29.354,0-44.032l-13.969-4.702L42.228,51.863
	L76.83,21.064l-17.286-5.957L9,60.098l65.921,22.249V148.268L74.921,148.268z"/>
<path fill="#EC2134" d="M125.193,81.631L90.8,112.245V69.979L125.193,81.631L125.193,81.631z M76.831,63.511L42.228,51.863
	L76.83,21.064l0,0L76.831,63.511L76.831,63.511z"/>
<path fill="#A8AAAD" d="M74.921,148.268l50.272-44.749V81.631L90.8,112.245c0-14.678,0-29.354,0-44.032L74.921,82.347V148.268
	L74.921,148.268z"/>
<g>
	<g>
		<path id="SVGID_1_" fill="#E5E5E5" d="M74.921,148.268l50.272-44.749V81.631L90.8,112.245c0-14.678,0-29.354,0-44.032
			L74.921,82.347V148.268L74.921,148.268z"/>
	</g>
	<g>
		<defs>
			<path id="SVGID_2_" d="M74.921,148.268l50.272-44.749V81.631L90.8,112.245c0-14.678,0-29.354,0-44.032L74.921,82.347V148.268
				L74.921,148.268z"/>
		</defs>
		<clipPath id="SVGID_4_">
			<use xlink:href="#SVGID_2_"  overflow="visible"/>
		</clipPath>
		<path clip-path="url(#SVGID_4_)" fill="#E5E5E5" d="M74.783,144.922l0.91-2.391l0.912-2.39l1.822-1.622l1.823-1.622l0.911,0.767
			l0.912,0.769l-0.912,2.39l-0.911,2.39l-1.823,1.622l-1.822,1.622l-0.912-0.767L74.783,144.922L74.783,144.922z M74.783,138.608
			l0.91,0.767l0.912,0.769l1.822-1.622l1.823-1.622l0.911-2.391l0.912-2.39l-0.912-0.768l-0.911-0.769l-1.823,1.623l-1.822,1.622
			l-0.912,2.391L74.783,138.608L74.783,138.608z M74.783,132.295l0.91-2.391l0.912-2.39l1.822-1.623l1.823-1.622l0.911,0.768
			l0.912,0.768l-0.912,2.39l-0.911,2.391l-1.823,1.622l-1.822,1.622l-0.912-0.767L74.783,132.295L74.783,132.295z M80.25,136.898
			l0.911-2.391l0.911-2.39l1.822-1.623l1.823-1.622l0.911,0.768l0.912,0.768l-0.912,2.391l-0.911,2.39l-1.823,1.622l-1.822,1.623
			l-0.911-0.768L80.25,136.898L80.25,136.898z M80.25,130.584l0.911,0.768l0.911,0.768l1.822-1.623l1.823-1.621l0.911-2.391
			l0.912-2.39l-0.912-0.768l-0.911-0.768l-1.823,1.622l-1.822,1.622l-0.911,2.39L80.25,130.584L80.25,130.584z M80.25,124.271
			l0.911-2.39l0.911-2.39l1.822-1.623l1.823-1.622l0.911,0.768l0.912,0.768l-0.912,2.391l-0.911,2.39l-1.823,1.622l-1.822,1.622
			l-0.911-0.768L80.25,124.271L80.25,124.271z M85.718,135.188l0.911-2.39l0.912-2.391l1.821-1.622l1.823-1.622l0.911,0.768
			l0.912,0.768l-0.912,2.39l-0.911,2.39l-1.823,1.623l-1.821,1.622l-0.912-0.768L85.718,135.188L85.718,135.188z M85.718,128.874
			l0.911,0.768l0.912,0.768l1.821-1.622l1.823-1.622l0.911-2.39l0.912-2.39l-0.912-0.769l-0.911-0.768l-1.823,1.623l-1.821,1.622
			l-0.912,2.39L85.718,128.874L85.718,128.874z M85.718,122.561l0.911-2.39l0.912-2.391l1.821-1.622l1.823-1.623l0.911,0.769
			l0.912,0.767l-0.912,2.392l-0.911,2.389l-1.823,1.623l-1.821,1.622l-0.912-0.768L85.718,122.561L85.718,122.561z M91.186,127.164
			l0.911-2.39l0.912-2.39l1.822-1.623l1.822-1.622l0.911,0.767l0.912,0.769l-0.912,2.39l-0.911,2.39l-1.822,1.623l-1.822,1.622
			l-0.912-0.768L91.186,127.164L91.186,127.164z M91.186,120.85l0.911,0.768l0.912,0.769l1.822-1.623l1.822-1.622l0.911-2.391
			l0.912-2.39l-0.912-0.767l-0.911-0.769l-1.822,1.622l-1.822,1.622l-0.912,2.392L91.186,120.85L91.186,120.85z M91.186,114.536
			l0.911-2.39l0.912-2.389l1.822-1.623l1.822-1.622l0.911,0.767l0.912,0.769l-0.912,2.39l-0.911,2.39l-1.822,1.622l-1.822,1.622
			l-0.912-0.767L91.186,114.536L91.186,114.536z M96.653,125.453l0.911-2.39l0.911-2.39l1.823-1.622l1.823-1.622l0.911,0.768
			l0.91,0.768l-0.91,2.39l-0.911,2.389l-1.823,1.623l-1.823,1.622l-0.911-0.767L96.653,125.453L96.653,125.453z M96.653,119.14
			l0.911,0.767l0.911,0.769l1.823-1.622l1.823-1.622l0.911-2.391l0.91-2.39l-0.91-0.768l-0.911-0.768l-1.823,1.622l-1.823,1.622
			l-0.911,2.391L96.653,119.14L96.653,119.14z M96.653,112.826l0.911-2.39l0.911-2.39l1.823-1.622l1.823-1.623l0.911,0.768
			l0.91,0.768l-0.91,2.39l-0.911,2.391l-1.823,1.622l-1.823,1.622l-0.911-0.767L96.653,112.826L96.653,112.826z M102.122,117.43
			l0.911,0.768l0.91,0.768l1.823-1.622l1.823-1.623l0.912-2.391l0.911-2.39l-0.911-0.767l-0.912-0.769l-1.823,1.622l-1.823,1.623
			l-0.91,2.39L102.122,117.43L102.122,117.43z M102.122,111.116l0.911-2.391l0.91-2.39l1.823-1.622l1.823-1.622l0.912,0.768
			l0.911,0.769l-0.911,2.39l-0.912,2.389l-1.823,1.622l-1.823,1.623l-0.91-0.768L102.122,111.116L102.122,111.116z M107.589,115.719
			l0.912-2.391l0.911-2.39l1.822-1.621l1.823-1.623l0.912,0.769l0.911,0.767l-0.911,2.39l-0.912,2.391l-1.823,1.622l-1.822,1.623
			l-0.911-0.769L107.589,115.719L107.589,115.719z M107.589,109.405l0.912,0.769l0.911,0.767l1.822-1.621l1.823-1.623l0.912-2.39
			l0.911-2.391l-0.911-0.768l-0.912-0.767l-1.823,1.622l-1.822,1.623l-0.911,2.39L107.589,109.405L107.589,109.405z
			 M107.589,103.092l0.912-2.391l0.911-2.39l1.822-1.622l1.823-1.622l0.912,0.767l0.911,0.769l-0.911,2.39l-0.912,2.391
			l-1.823,1.622l-1.822,1.623l-0.911-0.769L107.589,103.092L107.589,103.092z M113.057,107.695l0.911-2.39l0.912-2.391l1.823-1.622
			l1.822-1.621l0.911,0.768l0.912,0.767l-0.912,2.391l-0.911,2.39l-1.822,1.622l-1.823,1.622l-0.912-0.767L113.057,107.695
			L113.057,107.695z M113.057,101.382l0.911,0.767l0.912,0.768l1.823-1.621l1.822-1.622l0.911-2.391l0.912-2.39l-0.912-0.769
			l-0.911-0.767l-1.822,1.622l-1.823,1.623l-0.912,2.39L113.057,101.382L113.057,101.382z M113.057,95.068l0.911-2.39l0.912-2.391
			l1.823-1.622l1.822-1.623l0.911,0.769l0.912,0.767l-0.912,2.392l-0.911,2.39l-1.822,1.622l-1.823,1.623l-0.912-0.768
			L113.057,95.068L113.057,95.068z M118.523,99.672l0.911-2.391l0.912-2.39l1.823-1.623l1.823-1.622l0.91,0.768l0.912,0.768
			l-0.912,2.39l-0.91,2.391l-1.823,1.622l-1.823,1.622l-0.912-0.767L118.523,99.672L118.523,99.672z M118.523,93.358l0.911,0.767
			l0.912,0.769l1.823-1.623l1.823-1.622l0.91-2.389l0.912-2.391l-0.912-0.768l-0.91-0.769l-1.823,1.623l-1.823,1.621l-0.912,2.392
			L118.523,93.358L118.523,93.358z M118.523,105.985l0.911,0.769l0.912,0.767l1.823-1.622l1.823-1.622l0.91-2.391l0.912-2.39
			l-0.912-0.768l-0.91-0.768l-1.823,1.622l-1.823,1.622l-0.912,2.391L118.523,105.985L118.523,105.985z M102.122,104.802
			l0.911-2.391l0.91-2.39l1.823-1.622l1.823-1.622l0.912,0.769l0.911,0.767l-0.911,2.39l-0.912,2.391l-1.823,1.622l-1.823,1.622
			l-0.91-0.768L102.122,104.802L102.122,104.802z M74.783,125.981l0.91-2.39l0.912-2.392l1.822-1.621l1.823-1.623l0.911,0.769
			l0.912,0.768l-0.912,2.391l-0.911,2.39l-1.823,1.621l-1.822,1.623l-0.912-0.769L74.783,125.981L74.783,125.981z M74.783,119.668
			l0.91,0.768l0.912,0.767l1.822-1.621l1.823-1.622l0.911-2.391l0.912-2.39l-0.912-0.768l-0.911-0.768l-1.823,1.623l-1.822,1.622
			l-0.912,2.39L74.783,119.668L74.783,119.668z M74.783,113.354l0.91-2.39l0.912-2.391l1.822-1.623l1.823-1.622l0.911,0.769
			l0.912,0.767l-0.912,2.391l-0.911,2.39l-1.823,1.623l-1.822,1.622l-0.912-0.769L74.783,113.354L74.783,113.354z M80.25,117.957
			l0.911-2.39l0.911-2.39l1.822-1.622l1.823-1.623l0.911,0.768l0.912,0.769l-0.912,2.39l-0.911,2.39l-1.823,1.622l-1.822,1.623
			l-0.911-0.768L80.25,117.957L80.25,117.957z M80.25,111.644l0.911,0.768l0.911,0.768l1.822-1.622l1.823-1.623l0.911-2.389
			l0.912-2.391l-0.912-0.767l-0.911-0.769l-1.823,1.622l-1.822,1.622l-0.911,2.391L80.25,111.644L80.25,111.644z M80.25,105.33
			l0.911-2.39l0.911-2.39l1.822-1.622l1.823-1.622l0.911,0.767l0.912,0.769l-0.912,2.39l-0.911,2.39l-1.823,1.622l-1.822,1.622
			l-0.911-0.767L80.25,105.33L80.25,105.33z M85.718,116.247l0.911-2.39l0.912-2.39l1.821-1.622l1.823-1.622l0.911,0.767
			l0.912,0.769l-0.912,2.39l-0.911,2.389l-1.823,1.623l-1.821,1.622l-0.912-0.768L85.718,116.247L85.718,116.247z M85.718,109.933
			l0.911,0.768l0.912,0.769l1.821-1.622l1.823-1.622l0.911-2.391l0.912-2.39l-0.912-0.768l-0.911-0.769l-1.823,1.623l-1.821,1.622
			l-0.912,2.39L85.718,109.933L85.718,109.933z M85.718,103.62l0.911-2.39l0.912-2.39l1.821-1.623l1.823-1.622l0.911,0.768
			l0.912,0.768l-0.912,2.39l-0.911,2.39l-1.823,1.623l-1.821,1.622l-0.912-0.767L85.718,103.62L85.718,103.62z M74.783,107.041
			l0.91-2.391l0.912-2.389l1.822-1.622l1.823-1.623l0.911,0.768l0.912,0.768l-0.912,2.39l-0.911,2.391l-1.823,1.621l-1.822,1.623
			l-0.912-0.768L74.783,107.041L74.783,107.041z M74.783,100.728l0.91,0.767l0.912,0.769l1.822-1.622l1.823-1.623l0.911-2.39
			l0.912-2.391l-0.912-0.767l-0.911-0.769l-1.823,1.622l-1.822,1.623l-0.912,2.391L74.783,100.728L74.783,100.728z M74.783,94.414
			l0.91-2.39l0.912-2.391l1.822-1.622l1.823-1.622l0.911,0.768l0.912,0.768l-0.912,2.39l-0.911,2.39l-1.823,1.622l-1.822,1.623
			l-0.912-0.768L74.783,94.414L74.783,94.414z M80.25,99.017l0.911-2.39l0.911-2.391l1.822-1.622l1.823-1.622l0.911,0.769
			l0.912,0.767l-0.912,2.389l-0.911,2.392l-1.823,1.622l-1.822,1.622l-0.911-0.768L80.25,99.017L80.25,99.017z M80.25,92.703
			l0.911,0.769l0.911,0.767l1.822-1.622l1.823-1.622l0.911-2.39l0.912-2.39l-0.912-0.769l-0.911-0.767l-1.823,1.622l-1.822,1.622
			l-0.911,2.39L80.25,92.703L80.25,92.703z M80.25,86.39l0.911-2.391l0.911-2.39l1.822-1.622l1.823-1.623l0.911,0.769l0.912,0.768
			l-0.912,2.39l-0.911,2.391l-1.823,1.622l-1.822,1.622l-0.911-0.768L80.25,86.39L80.25,86.39z M85.718,97.307l0.911-2.392
			l0.912-2.389l1.821-1.622l1.823-1.623l0.911,0.769l0.912,0.768l-0.912,2.39l-0.911,2.391l-1.823,1.621l-1.821,1.623l-0.912-0.769
			L85.718,97.307L85.718,97.307z M85.718,90.993l0.911,0.769l0.912,0.767l1.821-1.622l1.823-1.623l0.911-2.39l0.912-2.39
			l-0.912-0.768l-0.911-0.768l-1.823,1.623l-1.821,1.622l-0.912,2.39L85.718,90.993L85.718,90.993z M85.718,84.68l0.911-2.391
			l0.912-2.39l1.821-1.623l1.823-1.622l0.911,0.769l0.912,0.768l-0.912,2.389l-0.911,2.391l-1.823,1.623l-1.821,1.622l-0.912-0.769
			L85.718,84.68L85.718,84.68z M69.315,96.123l0.911-2.389l0.911-2.391l1.823-1.621l1.823-1.623l0.911,0.768l0.911,0.768
			l-0.911,2.391l-0.911,2.389l-1.823,1.622l-1.823,1.623l-0.911-0.768L69.315,96.123L69.315,96.123z M74.783,88.101l0.91-2.39
			l0.912-2.391l1.822-1.622l1.823-1.622l0.911,0.768l0.912,0.768l-0.912,2.391l-0.911,2.389l-1.823,1.623l-1.822,1.622l-0.912-0.769
			L74.783,88.101L74.783,88.101z M74.783,81.787l0.91,0.768l0.912,0.768l1.822-1.622l1.823-1.622l0.911-2.39l0.912-2.39
			l-0.912-0.769l-0.911-0.767l-1.823,1.623l-1.822,1.622l-0.912,2.39L74.783,81.787L74.783,81.787z M74.783,75.474l0.91-2.391
			l0.912-2.39l1.822-1.623l1.823-1.623l0.911,0.769l0.912,0.767l-0.912,2.39l-0.911,2.391l-1.823,1.623l-1.822,1.622l-0.912-0.768
			L74.783,75.474L74.783,75.474z M80.25,80.077l0.911-2.39l0.911-2.39l1.822-1.623l1.823-1.623l0.911,0.767l0.912,0.768l-0.912,2.39
			l-0.911,2.39l-1.823,1.623l-1.822,1.622l-0.911-0.768L80.25,80.077L80.25,80.077z M80.25,73.764l0.911,0.767l0.911,0.769
			l1.822-1.623l1.823-1.623l0.911-2.39l0.912-2.39l-0.912-0.767l-0.911-0.769l-1.823,1.623l-1.822,1.622l-0.911,2.39L80.25,73.764
			L80.25,73.764z M80.25,67.449l0.911-2.389l0.911-2.39l1.822-1.623l1.823-1.623l0.911,0.767l0.912,0.768l-0.912,2.39l-0.911,2.389
			l-1.823,1.623l-1.822,1.622l-0.911-0.767L80.25,67.449L80.25,67.449z M85.718,78.366l0.911-2.39l0.912-2.39l1.821-1.622
			l1.823-1.623l0.911,0.767l0.912,0.767l-0.912,2.391l-0.911,2.389l-1.823,1.623l-1.821,1.622l-0.912-0.767L85.718,78.366
			L85.718,78.366z M85.718,72.053l0.911,0.767l0.912,0.768l1.821-1.622l1.823-1.623l0.911-2.391l0.912-2.39l-0.912-0.769
			l-0.911-0.767l-1.823,1.622l-1.821,1.623l-0.912,2.39L85.718,72.053L85.718,72.053z M69.315,89.811l0.911-2.39l0.911-2.39
			l1.823-1.623l1.823-1.622l0.911,0.768l0.911,0.768l-0.911,2.391l-0.911,2.39l-1.823,1.622l-1.823,1.622l-0.911-0.769
			L69.315,89.811L69.315,89.811z M69.315,83.497l0.911,0.769l0.911,0.768l1.823-1.623l1.823-1.622l0.911-2.39l0.911-2.39
			l-0.911-0.769l-0.911-0.767l-1.823,1.623l-1.823,1.622l-0.911,2.39L69.315,83.497L69.315,83.497z M69.315,77.184l0.911-2.39
			l0.911-2.391l1.823-1.623l1.823-1.623l0.911,0.769l0.911,0.767l-0.911,2.39l-0.911,2.391l-1.823,1.623l-1.823,1.622l-0.911-0.768
			L69.315,77.184L69.315,77.184z"/>
	</g>
</g>
<polygon fill="#EC2134" points="84.392,26.303 118.533,37.825 118.533,71.967 84.392,60.443 "/>
<polygon fill="#FFFFFF" points="84.392,26.303 112.172,1.891 146.057,13.327 118.533,37.825 "/>
<polygon fill="#A8AAAD" points="118.533,71.967 146.057,47.211 146.057,13.327 118.533,37.825 "/>
<g>
	<g>
		<polygon id="SVGID_3_" fill="#E5E5E5" points="118.533,71.967 146.057,47.211 146.057,13.327 118.533,37.825 		"/>
	</g>
	<g>
		<defs>
			<polygon id="SVGID_5_" points="118.533,71.967 146.057,47.211 146.057,13.327 118.533,37.825 			"/>
		</defs>
		<clipPath id="SVGID_6_">
			<use xlink:href="#SVGID_5_"  overflow="visible"/>
		</clipPath>
		<path clip-path="url(#SVGID_6_)" fill="#E5E5E5" d="M112.268,73.924l0.911-2.391l0.912-2.39l1.823-1.623l1.821-1.623l0.911,0.768
			l0.912,0.768l-0.912,2.39l-0.911,2.391l-1.821,1.623l-1.823,1.623l-0.912-0.768L112.268,73.924L112.268,73.924z M112.268,67.609
			l0.911,0.768l0.912,0.767l1.823-1.623l1.821-1.623l0.911-2.39l0.912-2.39l-0.912-0.767l-0.911-0.768l-1.821,1.621l-1.823,1.622
			l-0.912,2.391L112.268,67.609L112.268,67.609z M112.268,61.296l0.911-2.391l0.912-2.389l1.823-1.623l1.821-1.622l0.911,0.767
			l0.912,0.768l-0.912,2.39l-0.911,2.391l-1.821,1.621l-1.823,1.622l-0.912-0.767L112.268,61.296L112.268,61.296z M117.734,65.898
			l0.911-2.39l0.912-2.39l1.823-1.623l1.822-1.623l0.91,0.768l0.911,0.768l-0.911,2.39l-0.91,2.39l-1.822,1.622l-1.823,1.623
			l-0.912-0.767L117.734,65.898L117.734,65.898z M117.734,59.586l0.911,0.768l0.912,0.767l1.823-1.623l1.822-1.622l0.91-2.391
			l0.911-2.39l-0.911-0.768l-0.91-0.768l-1.822,1.623l-1.823,1.623l-0.912,2.39L117.734,59.586L117.734,59.586z M117.734,53.271
			l0.911-2.39l0.912-2.391l1.823-1.623l1.822-1.622l0.91,0.769l0.911,0.767l-0.911,2.39l-0.91,2.39l-1.822,1.623l-1.823,1.623
			l-0.912-0.768L117.734,53.271L117.734,53.271z M123.203,64.188l0.91-2.39l0.911-2.39l1.823-1.623l1.822-1.623l0.911,0.768
			l0.911,0.767l-0.911,2.391l-0.911,2.389l-1.822,1.623l-1.823,1.623l-0.911-0.768L123.203,64.188L123.203,64.188z M123.203,57.875
			l0.91,0.768l0.911,0.768l1.823-1.623l1.822-1.623l0.911-2.39l0.911-2.389l-0.911-0.768l-0.911-0.767l-1.822,1.622l-1.823,1.623
			l-0.911,2.39L123.203,57.875L123.203,57.875z M123.203,51.562l0.91-2.39l0.911-2.39l1.823-1.623l1.822-1.623l0.911,0.768
			l0.911,0.768l-0.911,2.391l-0.911,2.39l-1.822,1.622l-1.823,1.623l-0.911-0.768L123.203,51.562L123.203,51.562z M128.671,56.164
			l0.911-2.39l0.911-2.389l1.822-1.623l1.822-1.623l0.911,0.768l0.911,0.768l-0.911,2.39l-0.911,2.39l-1.822,1.622l-1.822,1.622
			l-0.911-0.767L128.671,56.164L128.671,56.164z M128.671,49.852l0.911,0.767l0.911,0.768l1.822-1.623l1.822-1.623l0.911-2.39
			l0.911-2.391l-0.911-0.767l-0.911-0.768l-1.822,1.623l-1.822,1.623l-0.911,2.391L128.671,49.852L128.671,49.852z M128.671,43.537
			l0.911-2.39l0.911-2.39l1.822-1.623l1.822-1.623l0.911,0.767l0.911,0.768l-0.911,2.39l-0.911,2.39l-1.822,1.623l-1.822,1.623
			l-0.911-0.768L128.671,43.537L128.671,43.537z M134.139,54.454l0.911-2.39l0.911-2.39l1.822-1.623l1.822-1.623l0.912,0.767
			l0.911,0.768l-0.911,2.39l-0.912,2.39l-1.822,1.622l-1.822,1.623l-0.911-0.767L134.139,54.454L134.139,54.454z M134.139,48.141
			l0.911,0.768l0.911,0.768l1.822-1.623l1.822-1.623l0.912-2.391l0.911-2.389l-0.911-0.767l-0.912-0.768l-1.822,1.622l-1.822,1.623
			l-0.911,2.391L134.139,48.141L134.139,48.141z M134.139,41.827l0.911-2.39l0.911-2.389l1.822-1.623l1.822-1.623l0.912,0.767
			l0.911,0.769l-0.911,2.39l-0.912,2.39l-1.822,1.622l-1.822,1.623l-0.911-0.767L134.139,41.827L134.139,41.827z M139.605,46.431
			l0.912,0.767l0.911,0.768l1.822-1.623l1.823-1.622l0.911-2.391l0.911-2.39l-0.911-0.767l-0.911-0.768l-1.823,1.622l-1.822,1.623
			l-0.911,2.389L139.605,46.431L139.605,46.431z M139.605,40.117l0.912-2.39l0.911-2.39l1.822-1.623l1.823-1.623l0.911,0.767
			l0.911,0.767l-0.911,2.391l-0.911,2.39l-1.823,1.622l-1.822,1.623l-0.911-0.767L139.605,40.117L139.605,40.117z M145.074,44.721
			l0.911-2.391l0.911-2.39l1.822-1.623l1.823-1.623l0.912,0.768l0.911,0.768l-0.911,2.39l-0.912,2.391l-1.823,1.623l-1.822,1.623
			l-0.911-0.768L145.074,44.721L145.074,44.721z M145.074,38.406l0.911,0.768l0.911,0.767l1.822-1.623l1.823-1.623l0.912-2.389
			l0.911-2.39l-0.911-0.768l-0.912-0.767l-1.823,1.622l-1.822,1.622l-0.911,2.39L145.074,38.406L145.074,38.406z M145.074,32.093
			l0.911-2.391l0.911-2.389l1.822-1.623l1.823-1.623l0.912,0.769l0.911,0.767l-0.911,2.39l-0.912,2.391l-1.823,1.622l-1.822,1.622
			l-0.911-0.768L145.074,32.093L145.074,32.093z M139.605,33.804l0.912-2.391l0.911-2.39l1.822-1.623l1.823-1.623l0.911,0.769
			l0.911,0.767l-0.911,2.39l-0.911,2.391l-1.823,1.623l-1.822,1.623l-0.911-0.769L139.605,33.804L139.605,33.804z M112.268,54.982
			l0.911-2.39l0.912-2.391l1.823-1.623l1.821-1.623l0.911,0.769l0.912,0.767l-0.912,2.391l-0.911,2.39l-1.821,1.622l-1.823,1.623
			l-0.912-0.767L112.268,54.982L112.268,54.982z M112.268,48.669l0.911,0.767l0.912,0.768l1.823-1.623l1.821-1.623l0.911-2.389
			l0.912-2.39l-0.912-0.768l-0.911-0.767l-1.821,1.623l-1.823,1.622l-0.912,2.39L112.268,48.669L112.268,48.669z M112.268,42.354
			l0.911-2.389l0.912-2.391l1.823-1.623l1.821-1.623l0.911,0.769l0.912,0.767l-0.912,2.391l-0.911,2.39l-1.821,1.623l-1.823,1.622
			l-0.912-0.768L112.268,42.354L112.268,42.354z M117.734,46.959l0.911-2.39l0.912-2.39l1.823-1.623l1.822-1.623l0.91,0.768
			l0.911,0.768l-0.911,2.39l-0.91,2.39l-1.822,1.623l-1.823,1.622l-0.912-0.767L117.734,46.959L117.734,46.959z M117.734,40.646
			l0.911,0.767l0.912,0.768l1.823-1.623l1.822-1.623l0.91-2.39l0.911-2.39l-0.911-0.768l-0.91-0.768l-1.822,1.623l-1.823,1.622
			l-0.912,2.391L117.734,40.646L117.734,40.646z M117.734,34.331l0.911-2.39l0.912-2.39l1.823-1.623l1.822-1.622l0.91,0.767
			l0.911,0.768l-0.911,2.389l-0.91,2.39l-1.822,1.623l-1.823,1.622l-0.912-0.767L117.734,34.331L117.734,34.331z M123.203,45.248
			l0.91-2.39l0.911-2.39l1.823-1.623l1.822-1.623l0.911,0.767l0.911,0.769l-0.911,2.39l-0.911,2.39l-1.822,1.623l-1.823,1.623
			l-0.911-0.767L123.203,45.248L123.203,45.248z M123.203,38.935l0.91,0.768l0.911,0.768l1.823-1.623l1.822-1.623l0.911-2.389
			l0.911-2.391l-0.911-0.768l-0.911-0.768l-1.822,1.623l-1.823,1.622l-0.911,2.39L123.203,38.935L123.203,38.935z M123.203,32.62
			l0.91-2.39l0.911-2.389l1.823-1.623l1.822-1.623l0.911,0.768l0.911,0.768l-0.911,2.39l-0.911,2.39l-1.822,1.623l-1.823,1.622
			l-0.911-0.768L123.203,32.62L123.203,32.62z M112.268,36.043l0.911-2.391l0.912-2.39l1.823-1.622l1.821-1.622l0.911,0.767
			l0.912,0.768l-0.912,2.389l-0.911,2.39l-1.821,1.623l-1.823,1.623l-0.912-0.768L112.268,36.043L112.268,36.043z M112.268,29.729
			l0.911,0.767l0.912,0.768l1.823-1.622l1.821-1.622l0.911-2.39l0.912-2.391l-0.912-0.767l-0.911-0.768l-1.821,1.622l-1.823,1.623
			l-0.912,2.39L112.268,29.729L112.268,29.729z M112.268,23.415l0.911-2.39l0.912-2.39l1.823-1.623l1.821-1.623l0.911,0.767
			l0.912,0.768l-0.912,2.39l-0.911,2.39l-1.821,1.622l-1.823,1.623l-0.912-0.767L112.268,23.415L112.268,23.415z M117.734,28.019
			l0.911-2.39l0.912-2.391l1.823-1.623l1.822-1.623l0.91,0.769l0.911,0.767l-0.911,2.391l-0.91,2.39l-1.822,1.623l-1.823,1.622
			l-0.912-0.768L117.734,28.019L117.734,28.019z M117.734,21.704l0.911,0.768l0.912,0.767l1.823-1.623l1.822-1.623l0.91-2.39
			l0.911-2.39l-0.911-0.768l-0.91-0.767l-1.822,1.622l-1.823,1.623l-0.912,2.39L117.734,21.704L117.734,21.704z M117.734,15.391
			L118.646,13l0.912-2.39l1.823-1.622l1.822-1.623l0.91,0.769l0.911,0.767l-0.911,2.39l-0.91,2.39l-1.822,1.622l-1.823,1.623
			l-0.912-0.768L117.734,15.391L117.734,15.391z M123.203,26.308l0.91-2.39l0.911-2.391l1.823-1.623l1.822-1.623l0.911,0.768
			l0.911,0.768l-0.911,2.389l-0.911,2.391l-1.822,1.623l-1.823,1.623l-0.911-0.768L123.203,26.308L123.203,26.308z M123.203,19.993
			l0.91,0.769l0.911,0.767l1.823-1.623l1.822-1.623l0.911-2.389l0.911-2.39l-0.911-0.768l-0.911-0.767l-1.822,1.622l-1.823,1.622
			l-0.911,2.39L123.203,19.993L123.203,19.993z M123.203,13.681l0.91-2.39l0.911-2.39l1.823-1.623l1.822-1.623l0.911,0.768
			l0.911,0.768l-0.911,2.389l-0.911,2.391l-1.822,1.622l-1.823,1.622l-0.911-0.768L123.203,13.681L123.203,13.681z M112.268,17.102
			l0.911-2.39l0.912-2.39l1.823-1.623l1.821-1.623l0.911,0.768l0.912,0.767l-0.912,2.391l-0.911,2.39l-1.821,1.622l-1.823,1.623
			l-0.912-0.768L112.268,17.102L112.268,17.102z M128.671,37.205l0.911-2.39l0.911-2.39l1.822-1.622l1.822-1.623l0.911,0.768
			l0.911,0.768l-0.911,2.39l-0.911,2.389l-1.822,1.623l-1.822,1.623l-0.911-0.767L128.671,37.205L128.671,37.205z M134.139,35.495
			l0.911-2.39l0.911-2.39l1.822-1.623l1.822-1.622l0.912,0.767l0.911,0.768l-0.911,2.39l-0.912,2.39l-1.822,1.623l-1.822,1.623
			l-0.911-0.767L134.139,35.495L134.139,35.495z M139.605,27.472l0.912-2.391l0.911-2.389l1.822-1.623l1.823-1.623l0.911,0.768
			l0.911,0.768l-0.911,2.39l-0.911,2.391l-1.823,1.622l-1.822,1.623l-0.911-0.768L139.605,27.472L139.605,27.472z M128.671,30.936
			l0.911-2.389l0.911-2.391l1.822-1.623l1.822-1.623l0.911,0.769l0.911,0.767l-0.911,2.391l-0.911,2.39l-1.822,1.623l-1.822,1.623
			l-0.911-0.769L128.671,30.936L128.671,30.936z M134.139,29.226l0.911-2.39l0.911-2.391l1.822-1.622l1.822-1.622l0.912,0.769
			l0.911,0.767l-0.911,2.389l-0.912,2.391l-1.822,1.622l-1.822,1.623l-0.911-0.768L134.139,29.226L134.139,29.226z M139.605,21.2
			l0.912-2.39l0.911-2.389l1.822-1.623l1.823-1.623l0.911,0.768l0.911,0.768l-0.911,2.39l-0.911,2.39l-1.823,1.622l-1.822,1.623
			l-0.911-0.768L139.605,21.2L139.605,21.2z"/>
	</g>
</g>
</svg>
